<svg width="14" height="14" viewBox="0 0 14 14" fill="none" xmlns="http://www.w3.org/2000/svg">
<path d="M6.99403 2.33331C4.41803 2.33331 2.33203 4.42398 2.33203 6.99998C2.33203 9.57598 4.41803 11.6666 6.99403 11.6666C9.5747 11.6666 11.6654 9.57598 11.6654 6.99998C11.6654 4.42398 9.5747 2.33331 6.99403 2.33331ZM8.86537 8.86665C8.68336 9.04865 8.38937 9.04865 8.20737 8.86665L6.67203 7.33131C6.58336 7.24265 6.53203 7.12598 6.53203 6.99998V5.13331C6.53203 4.87665 6.74203 4.66665 6.9987 4.66665C7.25536 4.66665 7.46536 4.87665 7.46536 5.13331V6.80865L8.86537 8.20865C9.04737 8.39065 9.04737 8.68465 8.86537 8.86665Z" fill="#636366"/>
</svg>
