<svg width="20" height="20" viewBox="0 0 20 20" fill="none" xmlns="http://www.w3.org/2000/svg">
<path d="M16.0714 1.66669C16.8604 1.66669 17.5 2.28851 17.5 3.05558V10C17.5 10.7671 16.8604 11.3889 16.0714 11.3889H14.1274C13.4491 10.8633 12.6523 10.4641 11.7787 10.232C12.8496 9.63244 13.5714 8.50991 13.5714 7.22224C13.5714 5.30459 11.9724 3.75002 10 3.75002C8.02755 3.75002 6.42857 5.30459 6.42857 7.22224C6.42857 8.5097 7.14997 9.63237 8.22056 10.232C7.34741 10.4641 6.55131 10.8636 5.87333 11.3889H3.92857C3.13959 11.3889 2.5 10.7671 2.5 10V3.05558C2.5 2.28851 3.13959 1.66669 3.92857 1.66669H16.0714Z" fill="black"/>
<path d="M12.8571 7.22224C12.8571 8.75637 11.578 10 10 10C8.42204 10 7.14286 8.75637 7.14286 7.22224C7.14286 5.68812 8.42204 4.44446 10 4.44446C11.578 4.44446 12.8571 5.68812 12.8571 7.22224Z" fill="black"/>
<path d="M15.7143 15.7236C15.7143 18.5012 13.0713 18.3313 9.91534 18.3313C6.75943 18.3313 4.28571 18.5012 4.28571 15.7236C4.28571 12.9461 6.84409 10.6945 10 10.6945C13.1559 10.6945 15.7143 12.9461 15.7143 15.7236Z" fill="black"/>
</svg>
